<svg width="231" height="48" viewBox="0 0 231 48" fill="none" xmlns="http://www.w3.org/2000/svg">
    <path d="M173.248 13.296V11.28H183.616V13.296H173.248ZM176.176 42.576C171.232 42.576 168.4 39.84 168.4 35.904C168.4 31.68 171.664 28.992 177.04 28.56L184.96 27.936V27.072C184.96 21.888 181.888 20.4 178.24 20.4C173.968 20.4 171.424 22.416 171.424 25.776H169.216C169.216 21.264 172.864 18.384 178.288 18.384C183.232 18.384 187.168 20.784 187.168 26.736V42H185.392L184.96 37.68C183.376 40.8 180.16 42.576 176.176 42.576ZM176.464 40.608C181.888 40.608 184.96 36.672 184.96 31.008V29.76L177.232 30.384C172.576 30.768 170.608 33.024 170.608 35.856C170.608 39.024 173.008 40.608 176.464 40.608ZM203.092 9.792L199.876 14.88H197.86L200.452 9.792H203.092ZM190.42 35.76H192.58C192.58 38.736 194.788 40.56 198.34 40.56C202.228 40.56 204.628 38.832 204.628 36C204.628 33.744 203.524 32.592 200.548 31.824L196.66 30.816C192.724 29.808 190.852 27.6 190.852 24.768C190.852 20.928 194.02 18.384 198.772 18.384C203.524 18.384 206.5 20.928 206.644 25.104H204.484C204.34 22.128 202.228 20.4 198.772 20.4C195.076 20.4 193.06 21.936 193.06 24.768C193.06 26.736 194.404 28.128 197.188 28.848L201.028 29.856C205.06 30.912 206.836 32.784 206.836 36C206.836 39.936 203.476 42.576 198.436 42.576C193.54 42.576 190.42 39.936 190.42 35.76ZM214.654 13.296V11.28H225.022V13.296H214.654ZM217.582 42.576C212.638 42.576 209.806 39.84 209.806 35.904C209.806 31.68 213.07 28.992 218.446 28.56L226.366 27.936V27.072C226.366 21.888 223.294 20.4 219.646 20.4C215.374 20.4 212.83 22.416 212.83 25.776H210.622C210.622 21.264 214.27 18.384 219.694 18.384C224.638 18.384 228.574 20.784 228.574 26.736V42H226.798L226.366 37.68C224.782 40.8 221.566 42.576 217.582 42.576ZM217.87 40.608C223.294 40.608 226.366 36.672 226.366 31.008V29.76L218.638 30.384C213.982 30.768 212.014 33.024 212.014 35.856C212.014 39.024 214.414 40.608 217.87 40.608Z" fill="#042B20"/>
    <path d="M1.443 22.501C1.443 17.765 5.365 14.472 11.063 14.472C16.539 14.472 20.017 17.506 20.165 22.39H15.429C15.318 20.059 13.653 18.69 10.989 18.69C8.066 18.69 6.179 20.096 6.179 22.353C6.179 24.277 7.215 25.35 9.472 25.868L13.727 26.793C18.352 27.792 20.609 30.16 20.609 34.193C20.609 39.225 16.687 42.481 10.73 42.481C4.958 42.481 1.184 39.41 1.073 34.563H5.809C5.846 36.857 7.696 38.226 10.73 38.226C13.875 38.226 15.873 36.857 15.873 34.6C15.873 32.787 14.948 31.714 12.728 31.233L8.436 30.271C3.848 29.272 1.443 26.645 1.443 22.501ZM20.8692 19.319V14.953H41.4412V19.319H33.5232V42H28.7872V19.319H20.8692ZM43.5814 32.121V14.953H48.3174V31.825C48.3174 35.71 50.4264 37.856 54.2744 37.856C58.1224 37.856 60.2684 35.673 60.2684 31.825V14.953H65.0044V32.121C65.0044 38.448 60.8604 42.444 54.2744 42.444C47.7254 42.444 43.5814 38.485 43.5814 32.121Z" fill="#042B20"/>
    <path d="M102.257 42.047H68V15H101.998C109.99 15 115.503 20.513 115.503 28.579C115.503 36.534 110.101 42.047 102.257 42.047ZM101.554 19.366H72.736V37.681H101.813C107.215 37.681 110.508 34.203 110.508 28.579C110.508 22.844 107.141 19.366 101.554 19.366Z" fill="#042B20"/>
    <path d="M151.233 28.4577C151.233 36.6717 145.831 42.4437 138.061 42.4437C130.328 42.4437 125 36.7087 125 28.4577C125 20.2437 130.365 14.4717 138.098 14.4717C145.831 14.4717 151.233 20.2067 151.233 28.4577ZM146.238 28.4577C146.238 22.6857 143.056 19.0227 138.098 19.0227C133.14 19.0227 129.958 22.6857 129.958 28.4577C129.958 34.2297 133.14 37.8927 138.098 37.8927C143.056 37.8927 146.238 34.1557 146.238 28.4577Z" fill="#042B20"/>
    <path d="M122.733 14.953V42H117.997V14.953H122.733Z" fill="#042B20"/>
</svg>
