<svg width="35" height="34" viewBox="0 0 35 34" fill="none" xmlns="http://www.w3.org/2000/svg">
    <path d="M11.3832 2.83325H23.2832C27.8165 2.83325 31.4998 6.51659 31.4998 11.0499V22.9499C31.4998 25.1291 30.6342 27.2191 29.0932 28.76C27.5523 30.3009 25.4624 31.1666 23.2832 31.1666H11.3832C6.84984 31.1666 3.1665 27.4833 3.1665 22.9499V11.0499C3.1665 8.87072 4.03219 6.78078 5.57311 5.23986C7.11403 3.69893 9.20398 2.83325 11.3832 2.83325ZM11.0998 5.66659C9.74723 5.66659 8.45003 6.20391 7.49359 7.16034C6.53716 8.11678 5.99984 9.41398 5.99984 10.7666V23.2333C5.99984 26.0524 8.28067 28.3333 11.0998 28.3333H23.5665C24.9191 28.3333 26.2163 27.7959 27.1728 26.8395C28.1292 25.8831 28.6665 24.5859 28.6665 23.2333V10.7666C28.6665 7.94742 26.3857 5.66659 23.5665 5.66659H11.0998ZM24.7707 7.79159C25.2403 7.79159 25.6907 7.97816 26.0228 8.31025C26.3549 8.64235 26.5415 9.09276 26.5415 9.56242C26.5415 10.0321 26.3549 10.4825 26.0228 10.8146C25.6907 11.1467 25.2403 11.3333 24.7707 11.3333C24.301 11.3333 23.8506 11.1467 23.5185 10.8146C23.1864 10.4825 22.9998 10.0321 22.9998 9.56242C22.9998 9.09276 23.1864 8.64235 23.5185 8.31025C23.8506 7.97816 24.301 7.79159 24.7707 7.79159ZM17.3332 9.91659C19.2118 9.91659 21.0135 10.6629 22.3418 11.9912C23.6702 13.3196 24.4165 15.1213 24.4165 16.9999C24.4165 18.8785 23.6702 20.6802 22.3418 22.0086C21.0135 23.337 19.2118 24.0833 17.3332 24.0833C15.4546 24.0833 13.6529 23.337 12.3245 22.0086C10.9961 20.6802 10.2498 18.8785 10.2498 16.9999C10.2498 15.1213 10.9961 13.3196 12.3245 11.9912C13.6529 10.6629 15.4546 9.91659 17.3332 9.91659ZM17.3332 12.7499C16.206 12.7499 15.125 13.1977 14.328 13.9947C13.5309 14.7917 13.0832 15.8727 13.0832 16.9999C13.0832 18.1271 13.5309 19.2081 14.328 20.0051C15.125 20.8022 16.206 21.2499 17.3332 21.2499C18.4603 21.2499 19.5413 20.8022 20.3384 20.0051C21.1354 19.2081 21.5832 18.1271 21.5832 16.9999C21.5832 15.8727 21.1354 14.7917 20.3384 13.9947C19.5413 13.1977 18.4603 12.7499 17.3332 12.7499Z" fill="#66AF9B"/>
</svg>
