<svg width="34" height="34" viewBox="0 0 34 34" fill="none" xmlns="http://www.w3.org/2000/svg">
    <path d="M14.1666 21.2499L21.5191 16.9999L14.1666 12.7499V21.2499ZM30.5433 10.1574C30.7275 10.8233 30.855 11.7158 30.94 12.8491C31.0391 13.9824 31.0816 14.9599 31.0816 15.8099L31.1666 16.9999C31.1666 20.1024 30.94 22.3833 30.5433 23.8424C30.1891 25.1174 29.3675 25.9391 28.0925 26.2933C27.4266 26.4774 26.2083 26.6049 24.3383 26.6899C22.4966 26.7891 20.8108 26.8316 19.2525 26.8316L17 26.9166C11.0641 26.9166 7.36665 26.6899 5.90748 26.2933C4.63248 25.9391 3.81081 25.1174 3.45665 23.8424C3.27248 23.1766 3.14498 22.2841 3.05998 21.1508C2.96081 20.0174 2.91831 19.0399 2.91831 18.1899L2.83331 16.9999C2.83331 13.8974 3.05998 11.6166 3.45665 10.1574C3.81081 8.88242 4.63248 8.06075 5.90748 7.70659C6.57331 7.52242 7.79165 7.39492 9.66165 7.30992C11.5033 7.21075 13.1891 7.16825 14.7475 7.16825L17 7.08325C22.9358 7.08325 26.6333 7.30992 28.0925 7.70659C29.3675 8.06075 30.1891 8.88242 30.5433 10.1574Z" fill="#66AF9B"/>
</svg>
