<svg width="178" height="64" viewBox="0 0 178 64" fill="none" xmlns="http://www.w3.org/2000/svg">
    <path fill-rule="evenodd" clip-rule="evenodd" d="M46.0408 24.596C47.9598 28.3154 48.4201 32.7806 46.9615 37.0545C44.1179 45.3858 35.0589 49.8345 26.7277 46.991C23.1291 45.7627 20.2548 43.3748 18.3798 40.3869C20.8602 39.2031 29.3033 35.0591 30.967 34.0839C32.3339 33.2874 34.369 32.1132 34.369 32.1132L35.2322 33.8726L36.5502 42.5427L37.557 41.9614L38.2268 29.8514C40.2608 28.5796 42.0533 27.3421 43.9294 26.0471L43.9299 26.0466C44.617 25.5724 45.3154 25.0903 46.0408 24.596ZM45.2927 23.2983C45.2924 23.2983 45.2922 23.2981 45.2919 23.2981C44.5006 23.6795 43.7335 24.0434 42.9788 24.4013C40.9191 25.3786 38.9513 26.3122 36.8331 27.4378L26.0106 21.9628L25.004 22.5439L31.8534 28.0205L32.9437 29.6449L32.9455 29.6477C32.9455 29.6477 30.9112 30.8231 29.5378 31.6086C27.8615 32.5619 20.0514 37.8014 17.786 39.3578C15.8049 35.6102 15.314 31.0855 16.7913 26.7574C19.6348 18.4261 28.6936 13.9773 37.0249 16.8208C40.5727 18.0317 43.4162 20.3695 45.2927 23.2983Z" fill="#3D7E78"/>
    <path fill-rule="evenodd" clip-rule="evenodd" d="M158.964 28.3586V26.6088H162.048V42.549H158.875V40.7387C157.744 42.0569 156.152 42.9281 153.85 42.9281C149.319 42.9281 146.407 39.3164 146.407 34.5883C146.407 29.8932 149.319 26.2487 153.85 26.2487C155.864 26.2487 157.731 27.0084 158.964 28.3586ZM158.752 31.487C157.812 30.0971 156.224 29.2417 154.356 29.2417C151.551 29.2417 149.619 31.6169 149.619 34.5883C149.619 37.5597 151.48 40.0061 154.356 40.0061C156.278 40.0061 157.833 38.9111 158.752 37.4917V31.487Z" fill="#3D7E78"/>
    <path d="M140.021 22.5051C140.021 21.2802 141.024 20.2898 142.262 20.2898C143.461 20.2898 144.478 21.3062 144.478 22.5051C144.478 23.7432 143.487 24.7466 142.262 24.7466C141.024 24.7466 140.021 23.7432 140.021 22.5051Z" fill="#3D7E78"/>
    <path d="M140.6 26.6088H143.897V42.549H140.6V26.6088Z" fill="#3D7E78"/>
    <path fill-rule="evenodd" clip-rule="evenodd" d="M134.157 20.6982H137.383V42.5488H134.21V40.7383C133.078 42.0567 131.486 42.9279 129.184 42.9279C124.653 42.9279 121.741 39.3162 121.741 34.5881C121.741 29.893 124.653 26.2484 129.184 26.2484C131.123 26.2484 132.925 26.952 134.157 28.2085V20.6982ZM134.086 31.4868C133.146 30.0969 131.558 29.2415 129.691 29.2415C126.885 29.2415 124.953 31.6167 124.953 34.5881C124.953 37.5595 126.815 40.0058 129.691 40.0058C131.612 40.0058 133.167 38.9109 134.086 37.4915V31.4868Z" fill="#3D7E78"/>
    <path fill-rule="evenodd" clip-rule="evenodd" d="M112.453 42.9542C113.893 42.9509 115.199 42.6815 116.373 42.1461C117.554 41.6073 118.59 40.8303 119.481 39.8149L117.512 37.7169L117.507 37.7216C116.853 38.4163 116.118 38.9487 115.298 39.379C114.487 39.7848 113.561 39.989 112.519 39.989C110.057 39.989 107.915 38.1342 107.605 35.6927H120C120.003 35.6572 120.005 35.6216 120.008 35.5861C120.036 35.2057 120.051 34.826 120.051 34.4429C120.051 29.8904 116.785 26.1956 112.265 26.1956C107.713 26.1956 104.282 29.7914 104.282 34.5749C104.282 39.4539 107.708 42.9493 112.453 42.9542ZM107.684 32.9691H116.681C116.364 30.752 114.54 29.0984 112.197 29.0984C111.024 29.0984 109.951 29.6067 109.14 30.363C108.361 31.0888 107.83 32.0372 107.684 32.9691Z" fill="#3D7E78"/>
    <path fill-rule="evenodd" clip-rule="evenodd" d="M90.289 40.951V48.4613H87.063V26.6107H90.236V28.421C91.3678 27.1028 92.9597 26.2316 95.2613 26.2316C99.7924 26.2316 102.705 29.8433 102.705 34.5712C102.705 39.2665 99.7924 42.9111 95.2613 42.9111C93.323 42.9111 91.5209 42.2073 90.289 40.951ZM90.3601 37.6726C91.2993 39.0626 92.8873 39.9179 94.7551 39.9179C97.5602 39.9179 99.4925 37.5427 99.4925 34.5712C99.4925 31.5998 97.6311 29.1537 94.7551 29.1537C92.8334 29.1537 91.2785 30.2486 90.3601 31.668V37.6726Z" fill="#3D7E78"/>
    <path d="M75.6236 34.3539L70.0012 26.6096H73.9811L77.7315 31.8922L81.4819 26.6096H85.4087L79.7617 34.3877L85.6701 42.5492H81.6857L77.6893 36.9078L73.6927 42.5492H69.6906L75.6236 34.3539Z" fill="#3D7E78"/>
    <path d="M59.3796 33.1981H67.6598V30.0704H59.3796V24.3881H68.3766V21.2604H55.7768V42.5491H68.4416V39.4216H59.3796V33.1981Z" fill="#3D7E78"/>
</svg>
