<svg width="314" height="45" viewBox="0 0 314 45" fill="none" xmlns="http://www.w3.org/2000/svg">
    <path d="M237.639 4.80966V2.04246H251.949V4.80966H237.639ZM241.68 45C234.856 45 230.947 41.2445 230.947 35.8419C230.947 30.0439 235.452 26.3543 242.872 25.7613L253.804 24.9048V23.7189C253.804 16.6032 249.564 14.5608 244.529 14.5608C238.632 14.5608 235.121 17.328 235.121 21.94H232.074C232.074 15.7467 237.109 11.7936 244.595 11.7936C251.419 11.7936 256.851 15.0878 256.851 23.2577V44.2094H254.4L253.804 38.2797C251.618 42.5622 247.179 45 241.68 45ZM242.077 42.2987C249.564 42.2987 253.804 36.896 253.804 29.1215V27.4085L243.137 28.265C236.711 28.7921 233.995 31.8887 233.995 35.776C233.995 40.1245 237.307 42.2987 242.077 42.2987Z" fill="white"/>
    <path d="M278.829 0L274.391 6.9839H271.608L275.186 0H278.829ZM261.339 35.6442H264.32C264.32 39.7291 267.368 42.2328 272.271 42.2328C277.637 42.2328 280.949 39.8609 280.949 35.9736C280.949 32.877 279.426 31.2958 275.318 30.2416L269.952 28.858C264.519 27.4744 261.935 24.4436 261.935 20.5564C261.935 15.2855 266.308 11.7936 272.867 11.7936C279.426 11.7936 283.533 15.2855 283.732 21.0176H280.751C280.552 16.9326 277.637 14.5608 272.867 14.5608C267.766 14.5608 264.983 16.6691 264.983 20.5564C264.983 23.2577 266.838 25.1684 270.681 26.1567L275.981 27.5403C281.546 28.9898 283.997 31.5593 283.997 35.9736C283.997 41.3763 279.359 45 272.403 45C265.646 45 261.339 41.3763 261.339 35.6442Z" fill="white"/>
    <path d="M294.787 4.80966V2.04246H309.097V4.80966H294.787ZM298.829 45C292.005 45 288.096 41.2445 288.096 35.8419C288.096 30.0439 292.601 26.3543 300.021 25.7613L310.952 24.9048V23.7189C310.952 16.6032 306.712 14.5608 301.677 14.5608C295.781 14.5608 292.27 17.328 292.27 21.94H289.222C289.222 15.7467 294.257 11.7936 301.744 11.7936C308.567 11.7936 314 15.0878 314 23.2577V44.2094H311.549L310.952 38.2797C308.766 42.5622 304.327 45 298.829 45ZM299.226 42.2987C306.712 42.2987 310.952 36.896 310.952 29.1215V27.4085L300.286 28.265C293.86 28.7921 291.144 31.8887 291.144 35.776C291.144 40.1245 294.456 42.2987 299.226 42.2987Z" fill="white"/>
    <path d="M0.51068 17.4446C0.51068 10.9439 5.92389 6.42386 13.7884 6.42386C21.3464 6.42386 26.1468 10.5884 26.3511 17.2923H19.8144C19.6612 14.0927 17.3631 12.2136 13.6862 12.2136C9.65185 12.2136 7.04738 14.1435 7.04738 17.2415C7.04738 19.8824 8.47729 21.3552 11.5924 22.0663L17.4653 23.3359C23.8488 24.7072 26.9639 27.9575 26.9639 33.4933C26.9639 40.4003 21.5507 44.8696 13.3287 44.8696C5.36214 44.8696 0.153204 40.6543 0 34.0012H6.5367C6.58777 37.15 9.14117 39.0291 13.3287 39.0291C17.6695 39.0291 20.4272 37.15 20.4272 34.052C20.4272 31.5634 19.1505 30.0906 16.0864 29.4304L10.1625 28.1099C3.8301 26.7387 0.51068 23.1328 0.51068 17.4446Z" fill="white"/>
    <path d="M27.323 13.077V7.0841H55.7168V13.077H44.7882V44.2094H38.2515V13.077H27.323Z" fill="white"/>
    <path d="M58.6707 30.6492V7.0841H65.2074V30.243C65.2074 35.5756 68.1183 38.5212 73.4294 38.5212C78.7405 38.5212 81.7024 35.5248 81.7024 30.243V7.0841H88.2391V30.6492C88.2391 39.3338 82.5195 44.8188 73.4294 44.8188C64.3904 44.8188 58.6707 39.3846 58.6707 30.6492Z" fill="white"/>
    <path d="M139.656 44.2739H92.3737V7.14861H139.298C150.329 7.14861 157.938 14.7159 157.938 25.7874C157.938 36.7066 150.482 44.2739 139.656 44.2739ZM138.685 13.1415H98.9104V38.281H139.043C146.499 38.281 151.044 33.507 151.044 25.7874C151.044 17.9154 146.397 13.1415 138.685 13.1415Z" fill="white"/>
    <path d="M207.253 25.6209C207.253 36.8956 199.797 44.8184 189.073 44.8184C178.4 44.8184 171.046 36.9464 171.046 25.6209C171.046 14.3462 178.451 6.42343 189.124 6.42343C199.797 6.42343 207.253 14.2954 207.253 25.6209ZM200.359 25.6209C200.359 17.6981 195.967 12.6702 189.124 12.6702C182.281 12.6702 177.889 17.6981 177.889 25.6209C177.889 33.5437 182.281 38.5716 189.124 38.5716C195.967 38.5716 200.359 33.4421 200.359 25.6209Z" fill="white"/>
    <path d="M167.917 7.0841V44.2094H161.38V7.0841H167.917Z" fill="white"/>
</svg>
