<svg width="105" height="126" viewBox="0 0 105 126" fill="none" xmlns="http://www.w3.org/2000/svg">
    <path d="M1.44534 104.328C1.44534 101.352 3.84534 99.336 7.42134 99.336C10.7333 99.336 12.8693 101.184 13.0613 104.184H10.6853C10.5653 102.456 9.34134 101.448 7.39734 101.448C5.21334 101.448 3.79734 102.552 3.79734 104.256C3.79734 105.648 4.58934 106.488 6.22134 106.872L9.07734 107.544C11.9093 108.192 13.3493 109.728 13.3493 112.176C13.3493 115.296 10.9253 117.288 7.22934 117.288C3.70134 117.288 1.34934 115.44 1.20534 112.464H3.60534C3.65334 114.12 5.04534 115.176 7.22934 115.176C9.53334 115.176 10.9973 114.096 10.9973 112.368C10.9973 111 10.2533 110.136 8.59734 109.752L5.74134 109.104C2.90934 108.456 1.44534 106.824 1.44534 104.328ZM21.2249 117.288C17.7689 117.288 15.3929 114.792 15.3929 111.144C15.3929 107.472 17.7209 104.928 21.1289 104.928C24.4649 104.928 26.6489 107.232 26.6489 110.712V111.552L17.5769 111.576C17.7449 114.048 19.0409 115.416 21.2729 115.416C23.0249 115.416 24.1769 114.696 24.5609 113.352H26.6729C26.0969 115.872 24.1289 117.288 21.2249 117.288ZM21.1289 106.824C19.1609 106.824 17.9129 108 17.6249 110.064H24.3929C24.3929 108.12 23.1209 106.824 21.1289 106.824ZM34.4727 117.288C31.0167 117.288 28.6407 114.792 28.6407 111.144C28.6407 107.472 30.9687 104.928 34.3767 104.928C37.7127 104.928 39.8967 107.232 39.8967 110.712V111.552L30.8247 111.576C30.9927 114.048 32.2887 115.416 34.5207 115.416C36.2727 115.416 37.4247 114.696 37.8087 113.352H39.9207C39.3447 115.872 37.3767 117.288 34.4727 117.288ZM34.3767 106.824C32.4087 106.824 31.1607 108 30.8727 110.064H37.6407C37.6407 108.12 36.3687 106.824 34.3767 106.824ZM52.147 117H49.843V99.648H52.147L58.123 114.24L64.099 99.648H66.451V117H64.147V110.136C64.147 106.896 64.171 105.72 64.291 104.496L59.227 117H57.019L51.979 104.544C52.099 105.384 52.147 107.16 52.147 109.584V117ZM69.5795 111.12C69.5795 107.496 72.1715 104.952 75.6995 104.952C79.2035 104.952 81.7955 107.496 81.7955 111.12C81.7955 114.744 79.2035 117.288 75.6995 117.288C72.1715 117.288 69.5795 114.744 69.5795 111.12ZM71.8595 111.12C71.8595 113.568 73.4195 115.272 75.6995 115.272C77.9555 115.272 79.5395 113.568 79.5395 111.12C79.5395 108.672 77.9555 106.968 75.6995 106.968C73.4195 106.968 71.8595 108.672 71.8595 111.12ZM91.2528 105.168V107.232H90.2448C88.1088 107.232 86.7888 108.528 86.7888 110.784V117H84.5328V105.288H86.6448L86.7888 107.064C87.2688 105.84 88.4448 105.024 90.0528 105.024C90.4608 105.024 90.7968 105.072 91.2528 105.168ZM98.2508 117.288C94.7948 117.288 92.4188 114.792 92.4188 111.144C92.4188 107.472 94.7468 104.928 98.1548 104.928C101.491 104.928 103.675 107.232 103.675 110.712V111.552L94.6028 111.576C94.7708 114.048 96.0668 115.416 98.2988 115.416C100.051 115.416 101.203 114.696 101.587 113.352H103.699C103.123 115.872 101.155 117.288 98.2508 117.288ZM98.1548 106.824C96.1868 106.824 94.9388 108 94.6508 110.064H101.419C101.419 108.12 100.147 106.824 98.1548 106.824Z" fill="white"/>
    <circle cx="52" cy="40" r="40" fill="#BEFDD2"/>
    <path d="M44.125 28.75C43.2299 28.75 42.3714 29.1056 41.7385 29.7385C41.1056 30.3714 40.75 31.2299 40.75 32.125V47.875C40.75 48.7701 41.1056 49.6286 41.7385 50.2615C42.3714 50.8944 43.2299 51.25 44.125 51.25H59.875C60.7701 51.25 61.6286 50.8944 62.2615 50.2615C62.8944 49.6286 63.25 48.7701 63.25 47.875V42.8575C63.25 42.5591 63.3685 42.273 63.5795 42.062C63.7905 41.851 64.0766 41.7325 64.375 41.7325C64.6734 41.7325 64.9595 41.851 65.1705 42.062C65.3815 42.273 65.5 42.5591 65.5 42.8575V47.875C65.5 49.3668 64.9074 50.7976 63.8525 51.8525C62.7976 52.9074 61.3668 53.5 59.875 53.5H44.125C42.6332 53.5 41.2024 52.9074 40.1475 51.8525C39.0926 50.7976 38.5 49.3668 38.5 47.875V32.125C38.5 30.6332 39.0926 29.2024 40.1475 28.1475C41.2024 27.0926 42.6332 26.5 44.125 26.5H49.1425C49.4409 26.5 49.727 26.6185 49.938 26.8295C50.149 27.0405 50.2675 27.3266 50.2675 27.625C50.2675 27.9234 50.149 28.2095 49.938 28.4205C49.727 28.6315 49.4409 28.75 49.1425 28.75H44.125ZM53.7325 27.625C53.7325 27.3266 53.851 27.0405 54.062 26.8295C54.273 26.6185 54.5591 26.5 54.8575 26.5H64.375C64.6734 26.5 64.9595 26.6185 65.1705 26.8295C65.3815 27.0405 65.5 27.3266 65.5 27.625V37.1425C65.5 37.4409 65.3815 37.727 65.1705 37.938C64.9595 38.149 64.6734 38.2675 64.375 38.2675C64.0766 38.2675 63.7905 38.149 63.5795 37.938C63.3685 37.727 63.25 37.4409 63.25 37.1425V30.343L55.6518 37.939C55.548 38.0464 55.4238 38.1322 55.2866 38.1911C55.1493 38.2501 55.0017 38.2811 54.8523 38.2824C54.7029 38.2837 54.5548 38.2552 54.4166 38.1987C54.2783 38.1421 54.1527 38.0586 54.0471 37.9529C53.9414 37.8473 53.8579 37.7217 53.8013 37.5834C53.7448 37.4452 53.7163 37.2971 53.7176 37.1477C53.7189 36.9983 53.7499 36.8507 53.8089 36.7134C53.8678 36.5762 53.9536 36.452 54.061 36.3482L61.6593 28.75H54.8552C54.5569 28.75 54.2707 28.6315 54.0598 28.4205C53.8488 28.2095 53.7303 27.9234 53.7303 27.625H53.7325Z" fill="#042B20"/>
</svg>
