<svg width="35" height="34" viewBox="0 0 35 34" fill="none" xmlns="http://www.w3.org/2000/svg">
    <path d="M32.4852 8.50008C31.3944 8.99591 30.2186 9.32175 29.0002 9.47758C30.2469 8.72675 31.2102 7.53675 31.6636 6.10591C30.4877 6.81425 29.1844 7.31008 27.8102 7.59342C26.6911 6.37508 25.1186 5.66675 23.3336 5.66675C20.0044 5.66675 17.2844 8.38675 17.2844 11.7442C17.2844 12.2259 17.3411 12.6934 17.4402 13.1326C12.3969 12.8776 7.90607 10.4551 4.91691 6.78591C4.39274 7.67841 4.09524 8.72675 4.09524 9.83175C4.09524 11.9426 5.15774 13.8126 6.80107 14.8751C5.79524 14.8751 4.86024 14.5917 4.03857 14.1667V14.2092C4.03857 17.1559 6.13524 19.6209 8.91191 20.1734C8.02043 20.4174 7.08454 20.4513 6.17774 20.2726C6.56251 21.4803 7.31608 22.537 8.33251 23.2942C9.34894 24.0515 10.5771 24.4711 11.8444 24.4943C9.69621 26.1949 7.0334 27.1141 4.29357 27.1009C3.81191 27.1009 3.33024 27.0726 2.84857 27.0159C5.54024 28.7442 8.7419 29.7501 12.1702 29.7501C23.3336 29.7501 29.4677 20.4851 29.4677 12.4526C29.4677 12.1834 29.4677 11.9284 29.4536 11.6592C30.6436 10.8092 31.6636 9.73258 32.4852 8.50008Z" fill="#66AF9B"/>
</svg>
